<?xml version="1.0" encoding="iso-8859-1"?>
<!-- Generator: Adobe Illustrator 19.0.0, SVG Export Plug-In . SVG Version: 6.00 Build 0)  -->
<svg version="1.1" id="Capa_1" xmlns="http://www.w3.org/2000/svg" xmlns:xlink="http://www.w3.org/1999/xlink" x="0px" y="0px"
	 viewBox="0 0 488.525 488.525" style="enable-background:new 0 0 488.525 488.525;" xml:space="preserve">
<g>
	<path style="fill:#ED664C;" d="M478.425,404.955l0.4,40.7c0,14-37,25.5-82.3,25.5s-81.9-11.2-81.9-25.1l-0.1-4.5l-0.5-32.3
		c6.4,12,40.2,21.1,80.9,21.1c45.3,0,83.2-11.3,83.2-25.3h0.3V404.955z"/>
	<path style="fill:#ED664C;" d="M478.025,365.755l0.4,39.2h-0.2c0,14-38,25.3-83.2,25.3c-40.7,0-74.5-9.1-80.9-21.1l-0.1-8.6
		l-0.5-33l0.2-0.1c5.1,12.4,39.6,22,81.3,22C438.625,389.555,475.525,379.055,478.025,365.755z"/>
</g>
<path style="fill:#FDC75B;" d="M478.025,365.755c-2.5,13.2-39.4,23.8-83.1,23.8c-41.7,0-76.2-9.6-81.3-22c-0.5-1-0.7-2.1-0.7-3.2
	c0-0.9,0.2-1.7,0.4-2.6c4.2-12.7,39.1-22.7,81.6-22.7c0.2,0,0.3,0,0.4,0c45.1,0.1,82.8,11.4,82.8,25.3
	C478.225,364.755,478.125,365.255,478.025,365.755z"/>
<g>
	<path style="fill:#ED664C;" d="M395.425,338.155v0.9c-0.2,0-0.3,0-0.4,0c-42.5,0-77.3,10-81.6,22.7l-3.5-1.7
		c-8.3,0-16.4-0.4-23.9-1.1l-1.9,0.4c-3.7-17.8-13.2-33.5-26.5-44.9l0.7-0.7c14.1,3.5,32.1,5.7,51.7,5.7c45.3,0,84.9-11.3,84.9-25.3
		h0.6v44H395.425z"/>
	<path style="fill:#ED664C;" d="M395.425,254.655v39.3h-0.6c0,14-39.6,25.3-84.9,25.3c-19.6,0-37.7-2.1-51.7-5.7l-0.7,0.7
		c-8.2-7.1-17.9-12.5-28.5-15.9l0.2-0.7l-1.1-42.8h0.1c2.8,13.1,38.3,23.6,81.8,23.6c43.9,0,83-10.6,85.4-23.9L395.425,254.655z"/>
</g>
<path style="fill:#FDC75B;" d="M395.425,253.355c0,0.4-0.1,0.9-0.1,1.3c-2.4,13.3-41.5,23.9-85.4,23.9c-43.4,0-79-10.4-81.8-23.6
	c-0.2-0.6-0.2-1.1-0.2-1.7c0-9.5,17.2-17.8,42.5-22.2c11.7-2,25.2-3.1,39.5-3.1C355.125,228.055,395.425,239.355,395.425,253.355z"
	/>
<g>
	<path style="fill:#ED664C;" d="M314.125,409.155l0.5,32.3l-4.1,0.1c-19.3,0-36.4-2-50.2-5.5l-1-1.1c10.5-9.5,18.4-21.7,22.7-35.6h2
		c8.1,0.8,16.8,1.3,25.9,1.3l4.1-0.1L314.125,409.155z"/>
	<path style="fill:#ED664C;" d="M313.425,367.655l0.5,33l-4.1,0.1c-9,0-17.7-0.4-25.9-1.3h-2c2.4-7.6,3.7-15.6,3.7-23.9
		c0-5.5-0.6-11-1.6-16.2l1.9-0.4c7.6,0.7,15.6,1.1,23.9,1.1l3.5,1.7c-0.3,0.9-0.4,1.7-0.4,2.6c0,1.1,0.2,2.2,0.7,3.2
		L313.425,367.655z"/>
</g>
<path style="fill:#FDC75B;" d="M284.025,359.255c1,5.3,1.6,10.7,1.6,16.2c0,8.3-1.3,16.4-3.7,23.9c-4.3,13.8-12.2,26.1-22.7,35.6
	c-14.3,13-33.3,21-54.2,21c-30.6,0-57.2-17.1-70.8-42.1c-6.2-11.4-9.8-24.5-9.8-38.4c0-44.5,36.1-80.5,80.6-80.5
	c8.3,0,16.3,1.3,23.8,3.5c10.6,3.3,20.3,8.8,28.5,15.9C270.825,325.755,280.325,341.455,284.025,359.255z M246.125,375.455
	c0-22.7-18.4-41.1-41.1-41.1s-41.1,18.4-41.1,41.1s18.4,41.1,41.1,41.1C227.725,416.655,246.125,398.255,246.125,375.455z"/>
<g>
	<path style="fill:#ED664C;" d="M270.125,230.155l0.2,1c-25.3,4.3-42.5,12.6-42.5,22.2c0,0.6,0.1,1.1,0.2,1.7h-0.1l1.1,42.8
		l-0.2,0.7c-7.6-2.3-15.5-3.5-23.8-3.5c-44.5,0-80.6,36-80.6,80.5c0,13.9,3.5,27,9.8,38.4l-3.4,1.8h-120.8l10-170.2
		c3.1-52,37.4-95.2,84.2-111.6c13.1-4.6,27.1-7.1,41.7-7.1c13.6,0,26.7,2.1,39.1,6.2v0.1c15.5,5,29.8,13,42,23.3
		C249.125,174.655,264.725,200.555,270.125,230.155z"/>
	<path style="fill:#ED664C;" d="M230.425,19.155c8.8-2,15.9,7.3,11.6,15.2l-53.8,89.2l-3.2,9.3c-12.4-4-25.5-6.2-39.1-6.2
		c-14.6,0-28.6,2.5-41.7,7.1l-1.6-6.6l-53.5-94.3c-4.2-7.7,2.4-16.8,11-15.3l48.8,8.3c34.9,5.9,70.6,5,105.1-3L230.425,19.155z"/>
	<path style="fill:#ED664C;" d="M205.125,334.355c22.7,0,41.1,18.4,41.1,41.1s-18.4,41.1-41.1,41.1s-41.1-18.4-41.1-41.1
		C163.925,352.755,182.325,334.355,205.125,334.355z"/>
</g>
<path d="M10.025,425.255h119.7c16.7,25,44.9,40.6,75.4,40.6c20.4,0,40.1-6.8,56-19.4c13.2,3,28.4,4.7,44.4,5
	c7.1,23.2,59.3,29.6,91.1,29.6c22.9,0,44.4-2.8,60.9-7.9c25.8-8,31-19.4,31-27.5v-0.1l-0.2-40.7l-0.3-38.5c0.1-0.7,0.2-1.4,0.2-2.1
	c0-11.8-10.6-21.1-31.6-27.4c-14.2-4.3-32.2-7-51.2-7.7v-74.5c0-0.2,0-0.4-0.1-0.6c0-0.2,0-0.5,0-0.7c0-27.9-62.5-35.3-95.5-35.3
	c-10.8,0-21.6,0.7-31.7,1.9c-6.9-27.8-22.6-52.9-44.6-71.3c-10.8-9.1-22.7-16.3-35.6-21.6l52.8-87.5c0.1-0.1,0.2-0.3,0.2-0.4
	c3.9-7.2,3.2-15.7-1.8-22.2s-13-9.4-20.9-7.6l-16.5,3.8c-33.3,7.7-67.4,8.6-101.2,2.9l-48.8-8.3c-7.8-1.3-15.5,1.9-20.1,8.3
	s-5.1,14.7-1.4,21.7c0,0.1,0.1,0.1,0.1,0.2l51.3,90.2c-46.9,20.2-78.5,65.1-81.6,116.7l-10,170.2c-0.2,2.7,0.8,5.3,2.7,7.3
	S7.225,425.255,10.025,425.255z M252.525,427.555c-13,11.9-29.9,18.4-47.4,18.4c-25.9,0-49.7-14.1-62-36.9
	c-5.6-10.3-8.5-21.9-8.5-33.6c0-38.9,31.7-70.5,70.6-70.5c7.1,0,14.1,1,20.8,3.1c9.2,2.9,17.7,7.6,25,13.9
	c11.9,10.1,20.1,24,23.2,39.3c0.9,4.8,1.4,9.6,1.4,14.2c0,7.2-1.1,14.3-3.2,21C268.725,408.355,261.825,419.155,252.525,427.555z
	 M385.425,329.155c-18,0.6-34.7,3-48.3,6.8c-12.9,3.6-22.2,8.3-27.8,14c-6.1,0-12-0.2-17.6-0.6c-2.3-7.6-5.6-14.8-9.7-21.5
	c8.9,1,18.3,1.5,27.8,1.5c23,0,45.2-2.8,62.3-7.8c5-1.5,9.3-3.1,13.3-4.9L385.425,329.155L385.425,329.155z M468.425,403.055
	c-0.1,0.5-0.2,0.9-0.2,1.4c-1,1.5-6.5,6-21.3,9.9c-14.4,3.8-32.9,5.9-51.9,5.9c-39.1,0-64.8-8.6-70.9-14.4l-0.1-5.4l-0.2-12.5
	c18.7,8.3,47,11.6,71.2,11.6c21.3,0,52.9-2.9,73.3-12.2L468.425,403.055z M303.525,369.955l0.3,20.7c-3.2-0.1-6.3-0.2-9.4-0.4
	c0.8-4.8,1.2-9.7,1.2-14.7c0-1.9-0.1-3.9-0.2-5.9C298.025,369.755,300.725,369.855,303.525,369.955z M288.825,409.855
	c4.9,0.4,10.1,0.6,15.3,0.7l0.3,20.9c-9.3-0.2-18.3-1-26.6-2.2C282.325,423.355,285.925,416.755,288.825,409.855z M385.425,290.555
	c0,0.9-0.6,1.9-0.6,2.9c-3.1,4.7-28.8,15.9-74.9,15.9c-18,0-35.5-1.9-49.3-5.4h-0.1c-6.6-5.1-13.8-9.2-21.5-12.4l-0.4-14.7
	c20.1,8.9,50.7,11.7,71.3,11.7c22.2,0,43.9-2.6,61-7.3c5.5-1.5,10.6-3.2,14.6-5.1v14.4H385.425z M396.525,461.155
	c-19.1,0-37.3-2.1-51.4-5.9c-14.4-3.9-19.6-8.2-20.5-9.7l-0.3-16.6c4.3,1.8,9.2,3.5,14.7,5c15.6,4.1,35.5,6.4,55.8,6.4
	c22.9,0,44.8-2.8,61.5-7.8c4.6-1.4,8.6-2.9,12.2-4.5l0.2,17.3C466.125,449.955,441.625,461.155,396.525,461.155z M467.825,364.255
	c-1.7,1.8-7.5,5.8-20.9,9.4c-14.4,3.8-32.8,5.9-51.9,5.9c-43.8,0-68.1-10.3-71.7-15.1c3.8-4.9,28.1-15.2,71.7-15.2h0.4
	c19,0,37.3,2,51.6,5.8C460.325,358.655,466.025,362.455,467.825,364.255z M362.725,243.955c13.8,3.5,20,7.4,22.1,9.4
	c-2.1,2-8.4,5.9-22.1,9.4c-15,3.8-33.7,5.9-52.8,5.9c-43.6,0-67.9-10.4-71.7-15.2c2-2.3,10.7-8.4,33.8-12.3c11.6-2,24.7-3,37.9-3
	C329.025,238.055,347.825,240.155,362.725,243.955z M57.925,27.655c0.2-0.3,0.3-0.2,0.5-0.2l48.8,8.3c36.4,6.2,73.1,5.2,109-3.1
	l16.5-3.8c0.2,0,0.3-0.1,0.5,0.2c0.2,0.2,0.2,0.3,0.1,0.4l-53.6,88.9c-0.4,0.7-0.8,1.5-1,2.3c-1.9-0.5-3.8-0.9-5.7-1.3
	c0.1-0.2,0.1-0.4,0.2-0.7l8.3-32.9c1.4-5.4-1.9-10.8-7.2-12.2c-5.4-1.4-10.8,1.9-12.2,7.2l-8.3,32.9c-0.3,1-0.4,2.1-0.3,3.1
	c-2.5-0.1-5-0.2-7.5-0.2c-0.8,0-1.5,0-2.3,0l-16.6-52.1c-1.7-5.3-7.3-8.2-12.6-6.5c-5.3,1.7-8.2,7.3-6.5,12.6l15.3,47.9
	c-4.2,0.7-8.4,1.6-12.5,2.7l-53-93.3C57.825,27.955,57.725,27.855,57.925,27.655z M30.025,245.855c2.8-46.9,33.2-87.1,77.6-102.7
	c12.4-4.3,25.3-6.5,38.4-6.5c12,0,23.8,1.8,35.1,5.4c0.3,0.1,0.6,0.3,0.9,0.4c14.2,4.6,27.2,11.8,38.7,21.5
	c18.4,15.4,31.6,36.3,37.7,59.4c-33.1,7.6-40.5,20.3-40.5,30c0,0.8,0.1,1.6,0.2,2.4l0.8,30.3c-4.5-0.7-9.1-1-13.7-1
	c-49.9,0-90.6,40.4-90.6,90.3c0,10.3,1.8,21,5.2,30h-99.2L30.025,245.855z"/>
<path d="M205.125,324.355c-28.2,0-51.1,22.9-51.1,51.1s22.9,51.1,51.1,51.1s51.1-22.9,51.1-51.1
	C256.125,347.255,233.225,324.355,205.125,324.355z M205.125,406.655c-17.2,0-31.1-14-31.1-31.1s14-31.1,31.1-31.1
	s31.1,13.9,31.1,31.1C236.125,392.655,222.225,406.655,205.125,406.655z"/>
<g>
</g>
<g>
</g>
<g>
</g>
<g>
</g>
<g>
</g>
<g>
</g>
<g>
</g>
<g>
</g>
<g>
</g>
<g>
</g>
<g>
</g>
<g>
</g>
<g>
</g>
<g>
</g>
<g>
</g>
</svg>
