<svg height="512" viewBox="0 0 64 64" width="512" xmlns="http://www.w3.org/2000/svg"><g id="Calendar"><path d="m57 9h-6v3a3 3 0 0 1 -6 0v-3h-26v3a3 3 0 0 1 -6 0v-3h-6a4 4 0 0 0 -4 4v8h58v-8a4 4 0 0 0 -4-4z" fill="#9bc9ff"/><path d="m3 21v32a4 4 0 0 0 4 4h33.074a11.994 11.994 0 1 1 20.926-8v-28zm14 29a1 1 0 0 1 -1 1h-4a1 1 0 0 1 -1-1v-3a1 1 0 0 1 1-1h4a1 1 0 0 1 1 1zm0-9a1 1 0 0 1 -1 1h-4a1 1 0 0 1 -1-1v-3a1 1 0 0 1 1-1h4a1 1 0 0 1 1 1zm0-9a1 1 0 0 1 -1 1h-4a1 1 0 0 1 -1-1v-3a1 1 0 0 1 1-1h4a1 1 0 0 1 1 1zm12 18a1 1 0 0 1 -1 1h-4a1 1 0 0 1 -1-1v-3a1 1 0 0 1 1-1h4a1 1 0 0 1 1 1zm0-9a1 1 0 0 1 -1 1h-4a1 1 0 0 1 -1-1v-3a1 1 0 0 1 1-1h4a1 1 0 0 1 1 1zm0-9a1 1 0 0 1 -1 1h-4a1 1 0 0 1 -1-1v-3a1 1 0 0 1 1-1h4a1 1 0 0 1 1 1zm12 0a1 1 0 0 1 -1 1h-4a1 1 0 0 1 -1-1v-3a1 1 0 0 1 1-1h4a1 1 0 0 1 1 1zm12 0a1 1 0 0 1 -1 1h-4a1 1 0 0 1 -1-1v-3a1 1 0 0 1 1-1h4a1 1 0 0 1 1 1z" fill="#9bc9ff"/><g fill="#1e81ce"><path d="m57 8h-5v-2a4 4 0 0 0 -8 0v2h-24v-2a4 4 0 0 0 -8 0v2h-5a5 5 0 0 0 -5 5v40a5 5 0 0 0 5 5h28a1 1 0 0 0 0-2h-28a3.009 3.009 0 0 1 -3-3v-31h56v16a1 1 0 0 0 2 0v-25a5 5 0 0 0 -5-5zm-11-2a2 2 0 0 1 4 0v6a2 2 0 0 1 -4 0zm-32 0a2 2 0 0 1 4 0v6a2 2 0 0 1 -4 0zm46 14h-56v-7a3.009 3.009 0 0 1 3-3h5v2a4 4 0 0 0 8 0v-2h24v2a4 4 0 0 0 8 0v-2h5a3.009 3.009 0 0 1 3 3z"/><path d="m58 56h-4a1 1 0 0 0 0 2h1.307a11 11 0 0 1 -16.39-13.4 1 1 0 0 0 -1.834-.8 13 13 0 0 0 19.917 15.435v1.765a1 1 0 0 0 2 0v-4a1 1 0 0 0 -1-1z"/><path d="m41 38.765v-1.765a1 1 0 0 0 -2 0v4a1 1 0 0 0 1 1h4a1 1 0 0 0 0-2h-1.307a11 11 0 0 1 16.307 13.583 1 1 0 0 0 1.818.834 13 13 0 0 0 -19.818-15.652z"/><path d="m30 29a2 2 0 0 0 -2-2h-4a2 2 0 0 0 -2 2v3a2 2 0 0 0 2 2h4a2 2 0 0 0 2-2zm-6 3v-3h4v3z"/><path d="m42 32v-3a2 2 0 0 0 -2-2h-4a2 2 0 0 0 -2 2v3a2 2 0 0 0 2 2h4a2 2 0 0 0 2-2zm-6-3h4v3h-4z"/><path d="m18 29a2 2 0 0 0 -2-2h-4a2 2 0 0 0 -2 2v3a2 2 0 0 0 2 2h4a2 2 0 0 0 2-2zm-6 3v-3h4v3z"/><path d="m52 34a2 2 0 0 0 2-2v-3a2 2 0 0 0 -2-2h-4a2 2 0 0 0 -2 2v3a2 2 0 0 0 2 2zm-4-5h4v3h-4z"/><path d="m30 38a2 2 0 0 0 -2-2h-4a2 2 0 0 0 -2 2v3a2 2 0 0 0 2 2h4a2 2 0 0 0 2-2zm-6 3v-3h4v3z"/><path d="m18 38a2 2 0 0 0 -2-2h-4a2 2 0 0 0 -2 2v3a2 2 0 0 0 2 2h4a2 2 0 0 0 2-2zm-6 3v-3h4v3z"/><path d="m28 45h-4a2 2 0 0 0 -2 2v3a2 2 0 0 0 2 2h4a2 2 0 0 0 2-2v-3a2 2 0 0 0 -2-2zm-4 5v-3h4v3z"/><path d="m16 45h-4a2 2 0 0 0 -2 2v3a2 2 0 0 0 2 2h4a2 2 0 0 0 2-2v-3a2 2 0 0 0 -2-2zm-4 5v-3h4v3z"/><path d="m49 52c-1.221 0-2-.592-2-1a1 1 0 0 0 -2 0c0 1.421 1.259 2.571 3 2.9v1.1a1 1 0 0 0 2 0v-1.1c1.741-.327 3-1.477 3-2.9 0-1.682-1.757-3-4-3-1.221 0-2-.592-2-1s.779-1 2-1 2 .592 2 1a1 1 0 0 0 2 0c0-1.421-1.259-2.571-3-2.9v-1.1a1 1 0 0 0 -2 0v1.1c-1.741.327-3 1.477-3 2.9 0 1.682 1.757 3 4 3 1.221 0 2 .592 2 1s-.779 1-2 1z"/></g></g></svg>