<svg height="512" viewBox="0 0 64 64" width="512" xmlns="http://www.w3.org/2000/svg"><g id="Bar_graph" data-name="Bar graph"><path d="m7 35h8v22h-8z" fill="#9bc9ff"/><path d="m21 29h8v28h-8z" fill="#9bc9ff"/><path d="m35 23h8v34h-8z" fill="#9bc9ff"/><path d="m49 15h8v42h-8z" fill="#9bc9ff"/><g fill="#1e81ce"><path d="m61 56h-3v-41a1 1 0 0 0 -1-1h-8a1 1 0 0 0 -1 1v41h-4v-33a1 1 0 0 0 -1-1h-8a1 1 0 0 0 -1 1v33h-4v-27a1 1 0 0 0 -1-1h-8a1 1 0 0 0 -1 1v27h-4v-21a1 1 0 0 0 -1-1h-8a1 1 0 0 0 -1 1v21h-3a1 1 0 0 0 0 2h58a1 1 0 0 0 0-2zm-47 0h-6v-20h6zm14 0h-6v-26h6zm14 0h-6v-32h6zm14 0h-6v-40h6z"/><path d="m8 60h-1a1 1 0 0 0 0 2h1a1 1 0 0 0 0-2z"/><path d="m15 60h-4a1 1 0 0 0 0 2h4a1 1 0 0 0 0-2z"/><path d="m22 60h-1a1 1 0 0 0 0 2h1a1 1 0 0 0 0-2z"/><path d="m29 60h-4a1 1 0 0 0 0 2h4a1 1 0 0 0 0-2z"/><path d="m36 60h-1a1 1 0 0 0 0 2h1a1 1 0 0 0 0-2z"/><path d="m43 60h-4a1 1 0 0 0 0 2h4a1 1 0 0 0 0-2z"/><path d="m50 60h-1a1 1 0 0 0 0 2h1a1 1 0 0 0 0-2z"/><path d="m57 60h-4a1 1 0 0 0 0 2h4a1 1 0 0 0 0-2z"/><path d="m7.242 23.757a.993.993 0 0 0 .707-.293l7.779-7.778 5.657 5.657a1 1 0 0 0 1.414 0l8.485-8.485 6.364 6.364a1 1 0 0 0 1.414 0l13.891-13.892.047 2.688a1 1 0 0 0 1 .982h.018a1 1 0 0 0 .982-1.018l-.088-5.041a1 1 0 0 0 -1-.983h-.012l-4.909.042a1 1 0 0 0 .009 2h.009l2.468-.021-13.122 13.121-6.364-6.364a1 1 0 0 0 -1.414 0l-8.485 8.485-5.657-5.657a1 1 0 0 0 -1.414 0l-8.486 8.486a1 1 0 0 0 .707 1.707z"/><path d="m3 28a1 1 0 0 0 .707-.293l1.414-1.414a1 1 0 1 0 -1.414-1.414l-1.414 1.414a1 1 0 0 0 .707 1.707z"/></g></g></svg>