<svg height="512" viewBox="0 0 64 64" width="512" xmlns="http://www.w3.org/2000/svg"><g id="Cheque"><g fill="#9bc9ff"><path d="m11 57a4 4 0 0 0 -4-4 4 4 0 0 0 -4 4v-30a4 4 0 0 1 4-4 4 4 0 0 1 4 4z"/><path d="m7 53a4 4 0 0 0 0 8h50v-4h-46a4 4 0 0 0 -4-4z"/><path d="m48 39h6 1v-12-14h-8v14 12z"/><path d="m47 9h8v4h-8z"/><path d="m55 7a4 4 0 0 0 -8 0v2h8z"/><path d="m48 43h1 4 1v-4h-6z"/><path d="m51 51 2-8h-4z"/></g><path d="m61 26h-5v-19a5 5 0 0 0 -10 0v5a3.009 3.009 0 0 0 -3 3v8a1 1 0 0 0 2 0v-8a1 1 0 0 1 1-1v12h-34.1a5 5 0 0 0 -9.9 1v30a5 5 0 0 0 5 5h50a1 1 0 0 0 1-1v-3h3a1 1 0 0 0 1-1v-30a1 1 0 0 0 -1-1zm-13-19a3 3 0 0 1 6 0v1h-6zm0 3h6v2h-6zm0 4h6v24h-6zm1 28v-2h4v2zm2.72 2-.72 2.88-.72-2.88zm-47.72-17a3 3 0 0 1 6 0v26.03a4.884 4.884 0 0 0 -6 0zm52 33h-49a3 3 0 1 1 3-3 1 1 0 0 0 1 1h45zm4-4h-48v-28h34v11a1 1 0 0 0 1 1v3a1 1 0 0 0 1 1h.22l1.81 7.24a1 1 0 0 0 1.94 0l1.81-7.24h.22a1 1 0 0 0 1-1v-3a1 1 0 0 0 1-1v-11h4z" fill="#1e81ce"/><path d="m20 39c1.221 0 2 .592 2 1a1 1 0 0 0 2 0c0-1.421-1.259-2.571-3-2.9v-1.1a1 1 0 0 0 -2 0v1.1c-1.741.327-3 1.477-3 2.9 0 1.682 1.757 3 4 3 1.221 0 2 .592 2 1s-.779 1-2 1-2-.592-2-1a1 1 0 0 0 -2 0c0 1.421 1.259 2.571 3 2.9v1.1a1 1 0 0 0 2 0v-1.1c1.741-.327 3-1.477 3-2.9 0-1.682-1.757-3-4-3-1.221 0-2-.592-2-1s.779-1 2-1z" fill="#1e81ce"/><path d="m29 34h14a1 1 0 0 0 0-2h-14a1 1 0 0 0 0 2z" fill="#1e81ce"/><path d="m29 38h14a1 1 0 0 0 0-2h-14a1 1 0 0 0 0 2z" fill="#1e81ce"/><path d="m29 48h17a1 1 0 0 0 0-2h-17a1 1 0 0 0 0 2z" fill="#1e81ce"/><path d="m47 50h-18a1 1 0 0 0 0 2h18a1 1 0 0 0 0-2z" fill="#1e81ce"/><path d="m55 50a1 1 0 0 0 0 2h2a1 1 0 0 0 0-2z" fill="#1e81ce"/></g></svg>