<svg height="512" viewBox="0 0 64 64" width="512" xmlns="http://www.w3.org/2000/svg"><g id="Analysis"><path d="m49 11h3v50h6v-50h3l-6-8z" fill="#bddbff"/><circle cx="32" cy="15" fill="#bddbff" r="12"/><path d="m27 33h8v28h-8z" fill="#bddbff"/><path d="m3 41h8v20h-8z" fill="#bddbff"/><g fill="#57a4ff"><path d="m11 40h-8a1 1 0 0 0 -1 1v20a1 1 0 0 0 1 1h8a1 1 0 0 0 1-1v-20a1 1 0 0 0 -1-1zm-1 20h-6v-18h6z"/><path d="m23 36h-8a1 1 0 0 0 -1 1v24a1 1 0 0 0 1 1h8a1 1 0 0 0 1-1v-24a1 1 0 0 0 -1-1zm-1 24h-6v-22h6z"/><path d="m35 32h-8a1 1 0 0 0 -1 1v28a1 1 0 0 0 1 1h8a1 1 0 0 0 1-1v-28a1 1 0 0 0 -1-1zm-1 28h-6v-26h6z"/><path d="m47 28h-8a1 1 0 0 0 -1 1v32a1 1 0 0 0 1 1h8a1 1 0 0 0 1-1v-32a1 1 0 0 0 -1-1zm-1 32h-6v-30h6z"/><path d="m61.8 10.4-6-8a1.036 1.036 0 0 0 -1.6 0l-6 8a1 1 0 0 0 .8 1.6h2v49a1 1 0 0 0 1 1h6a1 1 0 0 0 1-1v-49h2a1 1 0 0 0 .8-1.6zm-3.8-.4a1 1 0 0 0 -1 1v49h-4v-49a1 1 0 0 0 -1-1h-1l4-5.333 4 5.333z"/><path d="m32 28a13 13 0 1 0 -13-13 13.015 13.015 0 0 0 13 13zm0-24a11 11 0 1 1 -11 11 11.013 11.013 0 0 1 11-11z"/><path d="m30 20-.011 1.958 2 .01.011-1.968h2l-.011 1.958 2 .01.011-2.151a2.972 2.972 0 0 0 1.22-4.817 2.972 2.972 0 0 0 -1.231-4.819l.011-2.176-2-.005-.011 2h-2l.011-1.995-2-.005-.011 2h-3.989v2h2v6h-2v2zm5-2h-5v-2h5a1 1 0 0 1 0 2zm0-4h-5v-2h5a1 1 0 0 1 0 2z"/><path d="m2 2h4v2h-4z"/><path d="m8 2h8v2h-8z"/><path d="m2 8h4v2h-4z"/><path d="m8 8h8v2h-8z"/><path d="m2 14h4v2h-4z"/><path d="m8 14h8v2h-8z"/><path d="m2 20h4v2h-4z"/><path d="m8 20h8v2h-8z"/><path d="m2 26h4v2h-4z"/><path d="m8 26h8v2h-8z"/></g></g></svg>