<svg height="512pt" viewBox="-68 0 512 512.01352" width="512pt" xmlns="http://www.w3.org/2000/svg"><path d="m179.308594 8.546875c-4.273438-.019531-8.546875.179687-12.800782.597656-69.058593 5.34375-122.683593 62.410157-123.734374 131.667969v64h42.667968v-64c.902344-45.742188 35.59375-83.71875 81.066406-88.746094 4.242188-.585937 8.519532-.871094 12.800782-.851562 50.636718-1.109375 92.621094 38.964844 93.867187 89.597656v64h42.667969v-64c-1.277344-74.183594-62.347656-133.34375-136.535156-132.265625zm0 0" fill="#7facfa"/><path d="m166.507812 9.144531c-69.058593 5.34375-122.683593 62.410157-123.734374 131.667969v64h17.070312v-64c1.246094-50.632812 43.230469-90.707031 93.863281-89.597656 4.28125-.019532 8.5625.265625 12.800781.851562 4.242188-.585937 8.519532-.871094 12.800782-.851562 50.636718-1.109375 92.621094 38.964844 93.867187 89.597656v64h17.066407v-64c-1.046876-69.257812-54.671876-126.324219-123.734376-131.667969zm0 0" fill="#a4c2f7"/><path d="m349.976562 228.960938v233.304687c-.003906 4.546875-1.816406 8.90625-5.035156 12.117187l-12.03125 12.03125-12.035156 12.03125c-3.207031 3.222657-7.566406 5.03125-12.117188 5.035157h-258.898437c-4.546875-.003907-8.910156-1.8125-12.117187-5.035157l-12.035157-12.03125-12.03125-12.03125c-3.21875-3.210937-5.03125-7.570312-5.035156-12.117187v-233.304687c.003906-4.546876 1.816406-8.90625 5.035156-12.117188l12.03125-12.03125 12.035157-12.03125c3.207031-3.21875 7.570312-5.03125 12.117187-5.035156h258.898437c4.550782.003906 8.910157 1.816406 12.117188 5.035156l12.035156 12.03125 12.03125 12.03125c3.21875 3.210938 5.03125 7.570312 5.035156 12.117188zm0 0" fill="#cad9fc"/><path d="m324.375 228.960938v233.304687c0 4.546875-1.8125 8.90625-5.035156 12.117187l-24.0625 24.0625c-3.210938 3.222657-7.570313 5.03125-12.117188 5.035157h-233.300781c-4.546875-.003907-8.910156-1.8125-12.117187-5.035157l-12.035157-12.03125-12.03125-12.03125c-3.21875-3.210937-5.03125-7.570312-5.035156-12.117187v-233.304687c.003906-4.546876 1.816406-8.90625 5.035156-12.117188l12.03125-12.03125 12.035157-12.03125c3.207031-3.21875 7.570312-5.03125 12.117187-5.035156h233.300781c4.546875.003906 8.90625 1.816406 12.117188 5.035156l24.0625 24.0625c3.222656 3.210938 5.035156 7.570312 5.035156 12.117188zm0 0" fill="#e8edfc"/><path d="m290.242188 247.480469v42.667969h-25.601563c-4.707031-.015626-8.519531-3.828126-8.53125-8.535157v-25.601562c.011719-4.707031 3.824219-8.519531 8.53125-8.53125zm0 0" fill="#e8edfc"/><path d="m290.242188 247.480469h42.667968v42.667969h-42.667968zm0 0" fill="#e8edfc"/><path d="m367.042969 256.011719v25.601562c-.015625 4.707031-3.828125 8.519531-8.535157 8.535157h-25.597656v-42.667969h25.597656c4.707032.011719 8.519532 3.824219 8.535157 8.53125zm0 0" fill="#cad9fc"/><path d="m290.242188 401.082031v42.664063h-25.601563c-4.707031-.011719-8.519531-3.824219-8.53125-8.53125v-25.601563c.011719-4.707031 3.824219-8.519531 8.53125-8.53125zm0 0" fill="#e8edfc"/><path d="m290.242188 401.082031h42.667968v42.664063h-42.667968zm0 0" fill="#e8edfc"/><path d="m367.042969 409.613281v25.601563c-.015625 4.707031-3.828125 8.519531-8.535157 8.53125h-25.597656v-42.664063h25.597656c4.707032.011719 8.519532 3.824219 8.535157 8.53125zm0 0" fill="#cad9fc"/><path d="m367.042969 332.8125v25.601562c-.015625 4.707032-3.828125 8.519532-8.535157 8.53125h-25.597656v-42.664062h25.597656c4.707032.011719 8.519532 3.824219 8.535157 8.53125zm0 0" fill="#cad9fc"/><path d="m290.242188 324.28125v42.664062h-25.601563c-4.707031-.011718-8.519531-3.824218-8.53125-8.53125v-25.601562c.011719-4.707031 3.824219-8.519531 8.53125-8.53125zm0 0" fill="#e8edfc"/><path d="m290.242188 324.28125h42.667968v42.664062h-42.667968zm0 0" fill="#e8edfc"/><g fill="#428dff"><path d="m76.910156 247.480469c0 4.710937-3.820312 8.53125-8.535156 8.53125-4.710938 0-8.53125-3.820313-8.53125-8.53125 0-4.714844 3.820312-8.535157 8.53125-8.535157 4.714844 0 8.535156 3.820313 8.535156 8.535157zm0 0"/><path d="m111.042969 247.480469c0 4.710937-3.820313 8.53125-8.535157 8.53125-4.710937 0-8.53125-3.820313-8.53125-8.53125 0-4.714844 3.820313-8.535157 8.53125-8.535157 4.714844 0 8.535157 3.820313 8.535157 8.535157zm0 0"/><path d="m145.175781 247.480469c0 4.710937-3.820312 8.53125-8.535156 8.53125-4.710937 0-8.53125-3.820313-8.53125-8.53125 0-4.714844 3.820313-8.535157 8.53125-8.535157 4.714844 0 8.535156 3.820313 8.535156 8.535157zm0 0"/><path d="m179.308594 247.480469c0 4.710937-3.820313 8.53125-8.535156 8.53125-4.710938 0-8.53125-3.820313-8.53125-8.53125 0-4.714844 3.820312-8.535157 8.53125-8.535157 4.714843 0 8.535156 3.820313 8.535156 8.535157zm0 0"/><path d="m213.441406 247.480469c0 4.710937-3.820312 8.53125-8.53125 8.53125-4.714844 0-8.535156-3.820313-8.535156-8.53125 0-4.714844 3.820312-8.535157 8.535156-8.535157 4.710938 0 8.53125 3.820313 8.53125 8.535157zm0 0"/><path d="m76.910156 281.613281c0 4.714844-3.820312 8.535157-8.535156 8.535157-4.710938 0-8.53125-3.820313-8.53125-8.535157 0-4.710937 3.820312-8.53125 8.53125-8.53125 4.714844 0 8.535156 3.820313 8.535156 8.53125zm0 0"/><path d="m111.042969 281.613281c0 4.714844-3.820313 8.535157-8.535157 8.535157-4.710937 0-8.53125-3.820313-8.53125-8.535157 0-4.710937 3.820313-8.53125 8.53125-8.53125 4.714844 0 8.535157 3.820313 8.535157 8.53125zm0 0"/><path d="m145.175781 281.613281c0 4.714844-3.820312 8.535157-8.535156 8.535157-4.710937 0-8.53125-3.820313-8.53125-8.535157 0-4.710937 3.820313-8.53125 8.53125-8.53125 4.714844 0 8.535156 3.820313 8.535156 8.53125zm0 0"/><path d="m179.308594 281.613281c0 4.714844-3.820313 8.535157-8.535156 8.535157-4.710938 0-8.53125-3.820313-8.53125-8.535157 0-4.710937 3.820312-8.53125 8.53125-8.53125 4.714843 0 8.535156 3.820313 8.535156 8.53125zm0 0"/><path d="m213.441406 281.613281c0 4.714844-3.820312 8.535157-8.53125 8.535157-4.714844 0-8.535156-3.820313-8.535156-8.535157 0-4.710937 3.820312-8.53125 8.535156-8.53125 4.710938 0 8.53125 3.820313 8.53125 8.53125zm0 0"/><path d="m76.910156 315.746094c0 4.714844-3.820312 8.535156-8.535156 8.535156-4.710938 0-8.53125-3.820312-8.53125-8.535156 0-4.710938 3.820312-8.53125 8.53125-8.53125 4.714844 0 8.535156 3.820312 8.535156 8.53125zm0 0"/><path d="m111.042969 315.746094c0 4.714844-3.820313 8.535156-8.535157 8.535156-4.710937 0-8.53125-3.820312-8.53125-8.535156 0-4.710938 3.820313-8.53125 8.53125-8.53125 4.714844 0 8.535157 3.820312 8.535157 8.53125zm0 0"/><path d="m145.175781 315.746094c0 4.714844-3.820312 8.535156-8.535156 8.535156-4.710937 0-8.53125-3.820312-8.53125-8.535156 0-4.710938 3.820313-8.53125 8.53125-8.53125 4.714844 0 8.535156 3.820312 8.535156 8.53125zm0 0"/><path d="m179.308594 315.746094c0 4.714844-3.820313 8.535156-8.535156 8.535156-4.710938 0-8.53125-3.820312-8.53125-8.535156 0-4.710938 3.820312-8.53125 8.53125-8.53125 4.714843 0 8.535156 3.820312 8.535156 8.53125zm0 0"/><path d="m213.441406 315.746094c0 4.714844-3.820312 8.535156-8.53125 8.535156-4.714844 0-8.535156-3.820312-8.535156-8.535156 0-4.710938 3.820312-8.53125 8.535156-8.53125 4.710938 0 8.53125 3.820312 8.53125 8.53125zm0 0"/><path d="m76.910156 349.878906c0 4.714844-3.820312 8.535156-8.535156 8.535156-4.710938 0-8.53125-3.820312-8.53125-8.535156 0-4.710937 3.820312-8.53125 8.53125-8.53125 4.714844 0 8.535156 3.820313 8.535156 8.53125zm0 0"/><path d="m111.042969 349.878906c0 4.714844-3.820313 8.535156-8.535157 8.535156-4.710937 0-8.53125-3.820312-8.53125-8.535156 0-4.710937 3.820313-8.53125 8.53125-8.53125 4.714844 0 8.535157 3.820313 8.535157 8.53125zm0 0"/><path d="m145.175781 349.878906c0 4.714844-3.820312 8.535156-8.535156 8.535156-4.710937 0-8.53125-3.820312-8.53125-8.535156 0-4.710937 3.820313-8.53125 8.53125-8.53125 4.714844 0 8.535156 3.820313 8.535156 8.53125zm0 0"/><path d="m179.308594 349.878906c0 4.714844-3.820313 8.535156-8.535156 8.535156-4.710938 0-8.53125-3.820312-8.53125-8.535156 0-4.710937 3.820312-8.53125 8.53125-8.53125 4.714843 0 8.535156 3.820313 8.535156 8.53125zm0 0"/><path d="m213.441406 349.878906c0 4.714844-3.820312 8.535156-8.53125 8.535156-4.714844 0-8.535156-3.820312-8.535156-8.535156 0-4.710937 3.820312-8.53125 8.535156-8.53125 4.710938 0 8.53125 3.820313 8.53125 8.53125zm0 0"/><path d="m76.910156 384.011719c0 4.714843-3.820312 8.535156-8.535156 8.535156-4.710938 0-8.53125-3.820313-8.53125-8.535156 0-4.710938 3.820312-8.53125 8.53125-8.53125 4.714844 0 8.535156 3.820312 8.535156 8.53125zm0 0"/><path d="m111.042969 384.011719c0 4.714843-3.820313 8.535156-8.535157 8.535156-4.710937 0-8.53125-3.820313-8.53125-8.535156 0-4.710938 3.820313-8.53125 8.53125-8.53125 4.714844 0 8.535157 3.820312 8.535157 8.53125zm0 0"/><path d="m145.175781 384.011719c0 4.714843-3.820312 8.535156-8.535156 8.535156-4.710937 0-8.53125-3.820313-8.53125-8.535156 0-4.710938 3.820313-8.53125 8.53125-8.53125 4.714844 0 8.535156 3.820312 8.535156 8.53125zm0 0"/><path d="m179.308594 384.011719c0 4.714843-3.820313 8.535156-8.535156 8.535156-4.710938 0-8.53125-3.820313-8.53125-8.535156 0-4.710938 3.820312-8.53125 8.53125-8.53125 4.714843 0 8.535156 3.820312 8.535156 8.53125zm0 0"/><path d="m213.441406 384.011719c0 4.714843-3.820312 8.535156-8.53125 8.535156-4.714844 0-8.535156-3.820313-8.535156-8.535156 0-4.710938 3.820312-8.53125 8.535156-8.53125 4.710938 0 8.53125 3.820312 8.53125 8.53125zm0 0"/><path d="m76.910156 418.148438c0 4.710937-3.820312 8.53125-8.535156 8.53125-4.710938 0-8.53125-3.820313-8.53125-8.53125 0-4.714844 3.820312-8.535157 8.53125-8.535157 4.714844 0 8.535156 3.820313 8.535156 8.535157zm0 0"/><path d="m111.042969 418.148438c0 4.710937-3.820313 8.53125-8.535157 8.53125-4.710937 0-8.53125-3.820313-8.53125-8.53125 0-4.714844 3.820313-8.535157 8.53125-8.535157 4.714844 0 8.535157 3.820313 8.535157 8.535157zm0 0"/><path d="m145.175781 418.148438c0 4.710937-3.820312 8.53125-8.535156 8.53125-4.710937 0-8.53125-3.820313-8.53125-8.53125 0-4.714844 3.820313-8.535157 8.53125-8.535157 4.714844 0 8.535156 3.820313 8.535156 8.535157zm0 0"/><path d="m179.308594 418.148438c0 4.710937-3.820313 8.53125-8.535156 8.53125-4.710938 0-8.53125-3.820313-8.53125-8.53125 0-4.714844 3.820312-8.535157 8.53125-8.535157 4.714843 0 8.535156 3.820313 8.535156 8.535157zm0 0"/><path d="m213.441406 418.148438c0 4.710937-3.820312 8.53125-8.53125 8.53125-4.714844 0-8.535156-3.820313-8.535156-8.53125 0-4.714844 3.820312-8.535157 8.535156-8.535157 4.710938 0 8.53125 3.820313 8.53125 8.535157zm0 0"/><path d="m76.910156 452.28125c0 4.710938-3.820312 8.53125-8.535156 8.53125-4.710938 0-8.53125-3.820312-8.53125-8.53125 0-4.714844 3.820312-8.535156 8.53125-8.535156 4.714844 0 8.535156 3.820312 8.535156 8.535156zm0 0"/><path d="m111.042969 452.28125c0 4.710938-3.820313 8.53125-8.535157 8.53125-4.710937 0-8.53125-3.820312-8.53125-8.53125 0-4.714844 3.820313-8.535156 8.53125-8.535156 4.714844 0 8.535157 3.820312 8.535157 8.535156zm0 0"/><path d="m145.175781 452.28125c0 4.710938-3.820312 8.53125-8.535156 8.53125-4.710937 0-8.53125-3.820312-8.53125-8.53125 0-4.714844 3.820313-8.535156 8.53125-8.535156 4.714844 0 8.535156 3.820312 8.535156 8.535156zm0 0"/><path d="m179.308594 452.28125c0 4.710938-3.820313 8.53125-8.535156 8.53125-4.710938 0-8.53125-3.820312-8.53125-8.53125 0-4.714844 3.820312-8.535156 8.53125-8.535156 4.714843 0 8.535156 3.820312 8.535156 8.535156zm0 0"/><path d="m213.441406 452.28125c0 4.710938-3.820312 8.53125-8.53125 8.53125-4.714844 0-8.535156-3.820312-8.535156-8.53125 0-4.714844 3.820312-8.535156 8.535156-8.535156 4.710938 0 8.53125 3.820312 8.53125 8.535156zm0 0"/></g><path d="m25.707031 486.414062 12.035157 12.03125c3.207031 3.222657 7.570312 5.03125 12.117187 5.035157h25.597656c-4.546875-.003907-8.90625-1.8125-12.117187-5.035157l-24.0625-24.0625c-3.222656-3.210937-5.035156-7.570312-5.035156-12.117187v-233.304687c0-4.546876 1.8125-8.90625 5.035156-12.117188l29.097656-29.097656-25.601562 1.59375c-1.867188.835937-3.574219 2.003906-5.03125 3.441406l-12.035157 12.03125-12.03125 12.03125c-3.21875 3.210938-5.03125 7.570312-5.035156 12.117188v233.304687c.003906 4.546875 1.816406 8.90625 5.035156 12.117187zm0 0" fill="#fff"/><path d="m59.84375 187.746094v8.535156l3.496094-3.5c1.460937-1.4375 3.164062-2.605469 5.035156-3.441406v-48.527344c1.046875-69.195312 54.578125-126.226562 123.570312-131.644531-4.167968-.375-8.371093-.621094-12.636718-.621094-4.273438-.019531-8.546875.179687-12.800782.597656-69.058593 5.34375-122.683593 62.410157-123.734374 131.667969v48.527344c2.222656-1.035156 4.636718-1.578125 7.085937-1.59375zm0 0" fill="#fff"/><path d="m349.976562 332.8125c-4.714843 0-8.535156-3.820312-8.535156-8.53125v-34.132812c0-4.714844 3.820313-8.535157 8.535156-8.535157 4.710938 0 8.53125 3.820313 8.53125 8.535157v34.132812c0 4.710938-3.820312 8.53125-8.53125 8.53125zm0 0" fill="#428dff"/><path d="m17.175781 228.960938v233.304687h-17.066406v-233.304687zm0 0" fill="#fff"/><path d="m8.640625 271.628906c4.707031-.011718 8.519531-3.824218 8.535156-8.53125v-34.136718h-17.066406v34.136718c.011719 4.707032 3.824219 8.519532 8.53125 8.53125zm0 0" fill="#428dff"/><path d="m.109375 462.265625h17.066406v-130.902344c0-4.714843-3.820312-8.535156-8.535156-8.535156-4.710937 0-8.53125 3.820313-8.53125 8.535156zm0 0" fill="#428dff"/><path d="m17.175781 297.230469c-.035156-2.261719-.917969-4.421875-2.476562-6.058594l-1.277344-1.023437c-.476563-.324219-.992187-.582032-1.539063-.769532-.480468-.246094-1-.417968-1.535156-.511718-.5625-.097657-1.132812-.152344-1.707031-.171876-2.257813.03125-4.421875.917969-6.058594 2.476563-2.070312 1.992187-2.976562 4.90625-2.40625 7.726563.570313 2.816406 2.539063 5.148437 5.222657 6.183593 1.027343.433594 2.128906.667969 3.242187.679688 2.273437.023437 4.457031-.867188 6.0625-2.472657 1.605469-1.605468 2.496094-3.789062 2.472656-6.058593zm0 0" fill="#428dff"/><path d="m349.976562 256.011719c-4.714843 0-8.535156-3.820313-8.535156-8.53125v-18.519531c.003906-2.28125-.910156-4.472657-2.53125-6.082032l-24.066406-24.0625c-1.605469-1.625-3.796875-2.539062-6.085938-2.535156h-258.898437c-2.285156-.003906-4.476563.910156-6.085937 2.53125l-24.0625 24.066406c-1.625 1.605469-2.535157 3.796875-2.535157 6.082032 0 4.714843-3.820312 8.535156-8.535156 8.535156-4.710937 0-8.53125-3.820313-8.53125-8.535156-.015625-6.8125 2.699219-13.347657 7.53125-18.148438l24.066406-24.0625c4.800781-4.835938 11.335938-7.550781 18.152344-7.535156h258.898437c6.816407-.015625 13.351563 2.695312 18.152344 7.53125l24.0625 24.066406c4.835938 4.800781 7.550782 11.335938 7.535156 18.148438v18.519531c0 4.710937-3.820312 8.53125-8.53125 8.53125zm0 0" fill="#428dff"/><path d="m308.757812 512.011719h-258.898437c-6.816406.015625-13.351563-2.695313-18.152344-7.53125l-24.0625-24.0625c-4.835937-4.804688-7.550781-11.339844-7.535156-18.152344 0-4.714844 3.820313-8.535156 8.53125-8.535156 4.714844 0 8.535156 3.820312 8.535156 8.535156 0 2.285156.910157 4.472656 2.53125 6.082031l24.066407 24.0625c1.609374 1.625 3.800781 2.539063 6.085937 2.535156h258.898437c2.285157.003907 4.476563-.910156 6.085938-2.53125l24.0625-24.066406c1.625-1.605468 2.539062-3.796875 2.535156-6.082031v-18.519531c0-4.710938 3.820313-8.53125 8.535156-8.53125 4.710938 0 8.53125 3.820312 8.53125 8.53125v18.519531c.015626 6.8125-2.699218 13.347656-7.53125 18.148437l-24.066406 24.066407c-4.800781 4.832031-11.335937 7.546875-18.152344 7.53125zm0 0" fill="#428dff"/><path d="m349.976562 409.613281c-4.714843 0-8.535156-3.820312-8.535156-8.53125v-34.136719c0-4.710937 3.820313-8.53125 8.535156-8.53125 4.710938 0 8.53125 3.820313 8.53125 8.53125v34.136719c0 4.710938-3.820312 8.53125-8.53125 8.53125zm0 0" fill="#428dff"/><path d="m315.84375 196.28125c-4.714844 0-8.535156-3.820312-8.535156-8.535156v-46.933594c-1.273438-69.472656-58.523438-124.8125-128-123.730469-69.476563-1.082031-126.726563 54.257813-128 123.730469v46.933594c0 4.714844-3.820313 8.535156-8.535156 8.535156-4.710938 0-8.53125-3.820312-8.53125-8.535156v-46.933594c1.285156-78.894531 66.167968-141.871094 145.066406-140.8007812 78.898437-1.0703128 143.78125 61.9062502 145.066406 140.8007812v46.933594c0 4.714844-3.820312 8.535156-8.53125 8.535156zm-42.667969 0c-4.714843 0-8.535156-3.820312-8.535156-8.535156v-46.933594c-1.257813-45.914062-39.414063-82.160156-85.332031-81.066406-45.917969-1.09375-84.074219 35.152344-85.332032 81.066406v46.933594c0 4.714844-3.820312 8.535156-8.535156 8.535156-4.710937 0-8.53125-3.820312-8.53125-8.535156v-46.933594c1.261719-55.335938 47.058594-99.222656 102.398438-98.132812 55.34375-1.089844 101.136718 42.796874 102.398437 98.132812v46.933594c0 4.714844-3.820312 8.535156-8.53125 8.535156zm0 0" fill="#428dff"/><path d="m358.507812 298.679688h-93.867187c-9.417969-.011719-17.054687-7.644532-17.066406-17.066407v-25.601562c.011719-9.417969 7.648437-17.054688 17.066406-17.066407h93.867187c9.421876.011719 17.058594 7.648438 17.066407 17.066407v25.601562c-.007813 9.421875-7.644531 17.054688-17.066407 17.066407zm-93.867187-42.667969v25.601562h93.875l-.007813-25.601562zm0 0" fill="#428dff"/><path d="m358.507812 452.28125h-93.867187c-9.417969-.011719-17.054687-7.648438-17.066406-17.066406v-25.601563c.011719-9.421875 7.648437-17.054687 17.066406-17.066406h93.867187c9.421876.011719 17.058594 7.644531 17.066407 17.066406v25.601563c-.007813 9.417968-7.644531 17.054687-17.066407 17.066406zm-93.867187-42.667969v25.601563h93.875l-.007813-25.601563zm0 0" fill="#428dff"/><path d="m358.507812 375.480469h-93.867187c-9.417969-.011719-17.054687-7.644531-17.066406-17.066407v-25.601562c.011719-9.421875 7.648437-17.054688 17.066406-17.066406h93.867187c9.421876.011718 17.058594 7.644531 17.066407 17.066406v25.601562c-.007813 9.421876-7.644531 17.054688-17.066407 17.066407zm-93.867187-42.667969v25.601562h93.875l-.007813-25.601562zm0 0" fill="#428dff"/><path d="m290.242188 298.679688c-4.714844 0-8.535157-3.820313-8.535157-8.53125v-42.667969c0-4.714844 3.820313-8.535157 8.535157-8.535157 4.710937 0 8.53125 3.820313 8.53125 8.535157v42.667969c0 4.710937-3.820313 8.53125-8.53125 8.53125zm0 0" fill="#428dff"/><path d="m332.910156 298.679688c-4.714844 0-8.535156-3.820313-8.535156-8.53125v-42.667969c0-4.714844 3.820312-8.535157 8.535156-8.535157 4.710938 0 8.53125 3.820313 8.53125 8.535157v42.667969c0 4.710937-3.820312 8.53125-8.53125 8.53125zm0 0" fill="#428dff"/><path d="m290.242188 375.480469c-4.714844 0-8.535157-3.820313-8.535157-8.535157v-42.664062c0-4.714844 3.820313-8.535156 8.535157-8.535156 4.710937 0 8.53125 3.820312 8.53125 8.535156v42.664062c0 4.714844-3.820313 8.535157-8.53125 8.535157zm0 0" fill="#428dff"/><path d="m332.910156 375.480469c-4.714844 0-8.535156-3.820313-8.535156-8.535157v-42.664062c0-4.714844 3.820312-8.535156 8.535156-8.535156 4.710938 0 8.53125 3.820312 8.53125 8.535156v42.664062c0 4.714844-3.820312 8.535157-8.53125 8.535157zm0 0" fill="#428dff"/><path d="m290.242188 452.28125c-4.714844 0-8.535157-3.820312-8.535157-8.535156v-42.664063c0-4.714843 3.820313-8.535156 8.535157-8.535156 4.710937 0 8.53125 3.820313 8.53125 8.535156v42.664063c0 4.714844-3.820313 8.535156-8.53125 8.535156zm0 0" fill="#428dff"/><path d="m332.910156 452.28125c-4.714844 0-8.535156-3.820312-8.535156-8.535156v-42.664063c0-4.714843 3.820312-8.535156 8.535156-8.535156 4.710938 0 8.53125 3.820313 8.53125 8.535156v42.664063c0 4.714844-3.820312 8.535156-8.53125 8.535156zm0 0" fill="#428dff"/></svg>