<?xml version="1.0" encoding="iso-8859-1"?>
<!-- Generator: Adobe Illustrator 19.0.0, SVG Export Plug-In . SVG Version: 6.00 Build 0)  -->
<svg version="1.1" id="Capa_1" xmlns="http://www.w3.org/2000/svg" xmlns:xlink="http://www.w3.org/1999/xlink" x="0px" y="0px"
	 viewBox="0 0 498 498" style="enable-background:new 0 0 498 498;" xml:space="preserve">
<g>
	<path style="fill:#ED664C;" d="M487.4,378.9l0.4,34.5c0,11.8-31.3,21.5-69.7,21.5s-69.4-9.4-69.4-21.3l-0.1-3.9l-0.4-27.3
		c5.4,10.1,34.1,17.9,68.5,17.9c38.4,0,70.5-9.6,70.5-21.4L487.4,378.9L487.4,378.9z"/>
	<path style="fill:#ED664C;" d="M487.1,345.7l0.3,33.2h-0.2c0,11.8-32.1,21.4-70.5,21.4c-34.5,0-63.1-7.8-68.5-17.9l-0.1-7.2
		l-0.4-28l0.2-0.1c4.4,10.5,33.5,18.7,68.9,18.7C453.8,365.9,485,356.9,487.1,345.7z"/>
</g>
<g>
	<path style="fill:#FDC75B;" d="M487.1,345.7c-2.1,11.3-33.3,20.2-70.4,20.2c-35.4,0-64.5-8.1-68.9-18.7c-0.4-0.9-0.6-1.8-0.6-2.8
		c0-0.7,0.1-1.5,0.4-2.2c3.5-10.7,32.7-19.1,68.3-19.2c0.3,0,0.5,0,0.8,0c22.1,0,42.1,3.2,55.1,8.1c9.6,3.7,15.4,8.2,15.4,13.3
		C487.3,344.8,487.2,345.3,487.1,345.7z"/>
	<path style="fill:#FDC75B;" d="M415.9,285.4v-31.2c0.8-1.3,1.3-2.5,1.3-3.8c0-2.7-1.7-5.2-4.9-7.5V127h3.8h27
		c16,0,28.9,12.9,28.9,28.9v175l-0.1,0.2c-13-5-33-8.1-55.1-8.1c-0.3,0-0.5,0-0.8,0l-0.1-6L415.9,285.4L415.9,285.4z"/>
	<path style="fill:#FDC75B;" d="M412.3,242.9c3.1,2.3,4.9,4.9,4.9,7.5c0,1.3-0.4,2.6-1.3,3.8c-6.3,10-37.1,17.6-71.2,17.6
		c-36.8,0-67-8.9-69.3-20c-0.1-0.5-0.2-0.9-0.2-1.4c0-11.8,31.1-21.4,69.5-21.4C374.4,229,401.6,234.8,412.3,242.9z"/>
</g>
<g>
	<path style="fill:#ED664C;" d="M415.9,317l0.1,6c-35.6,0.1-64.8,8.5-68.3,19.2l-3-1.5c-7.1,0-13.9-0.3-20.3-0.9l-1.7,0.3
		c-3.1-15.1-11.2-28.4-22.4-38l0.6-0.6c11.9,3,27.2,4.8,43.9,4.8c37.1,0,69.2-9.5,71.2-20.9V317H415.9z"/>
	<path style="fill:#ED664C;" d="M415.9,254.2v31.2c-2,11.4-34.1,20.9-71.2,20.9c-16.6,0-31.9-1.8-43.9-4.8l-0.6,0.6
		c-6.9-6-15.1-10.6-24.1-13.4l0.1-0.7l-0.9-36.3c2.3,11.2,32.5,20,69.3,20C378.8,271.8,409.6,264.2,415.9,254.2z"/>
	<path style="fill:#ED664C;" d="M412.3,127v115.9c-10.7-8.1-37.9-13.9-67.6-13.9c-38.4,0-69.5,9.6-69.5,21.4c0,0.5,0.1,0.9,0.2,1.4
		l0.9,36.3l-0.1,0.7c-6.4-2-13.2-3.1-20.3-3.1c-17.5,0-33.5,6.6-45.6,17.5l-1.4-1.6h-139H39.1c-16,0-28.9-12.9-28.9-28.9V92.4
		c0-16,13-28.9,28.9-28.9h344.2c16,0,29,13,29,28.9L412.3,127L412.3,127z M286.2,182.5c0-41.4-33.6-75-75-75c-41.5,0-75,33.6-75,75
		s33.6,75,75,75C252.7,257.5,286.2,224,286.2,182.5z M83.5,114.3c0-11.5-9.3-20.9-20.9-20.9s-20.9,9.3-20.9,20.9s9.4,20.9,20.9,20.9
		S83.5,125.9,83.5,114.3z"/>
	<path style="fill:#ED664C;" d="M348.2,382.5l0.4,27.3l-3.4,0.1c-16.4,0-30.8-1.7-42.6-4.6l-0.8-0.9c9-8.2,15.8-18.7,19.3-30.7
		l1.6,0.5c6.9,0.7,14.3,1.1,22,1.1l3.4-0.1L348.2,382.5z"/>
	<path style="fill:#ED664C;" d="M347.7,347.2l0.4,28l-3.4,0.1c-7.7,0-15.1-0.4-22-1.1l-1.6-0.5c1.9-6.3,2.9-12.9,2.9-19.8
		c0-4.7-0.5-9.3-1.4-13.8l1.7-0.3c6.4,0.6,13.2,0.9,20.3,0.9l3,1.5c-0.3,0.7-0.4,1.5-0.4,2.2c0,0.9,0.2,1.9,0.6,2.8L347.7,347.2z"/>
</g>
<path style="fill:#FDC75B;" d="M322.7,340.2c0.9,4.4,1.4,9.1,1.4,13.8c0,6.9-1,13.5-2.9,19.8c-3.6,11.9-10.4,22.5-19.3,30.7
	c-12.2,11.1-28.2,17.8-45.9,17.8c-34.1,0-62.4-25.1-67.4-57.8c-0.5-3.4-0.8-6.8-0.8-10.4c0-20.2,8.8-38.3,22.6-50.7
	c12.1-10.9,28.1-17.5,45.6-17.5c7.1,0,13.9,1.1,20.3,3.1c9,2.8,17.2,7.4,24.1,13.4C311.5,311.8,319.6,325,322.7,340.2z M290.7,353.9
	c0-19.2-15.6-34.8-34.8-34.8S221,334.7,221,353.9s15.6,34.8,34.8,34.8S290.7,373.1,290.7,353.9z"/>
<path style="fill:#ED664C;" d="M255.9,319.1c19.2,0,34.8,15.6,34.8,34.8c0,19.2-15.6,34.8-34.8,34.8S221,373.1,221,353.9
	C221,334.7,236.6,319.1,255.9,319.1z"/>
<g>
	<path style="fill:#FDC75B;" d="M211.2,107.6c41.4,0,75,33.6,75,75s-33.6,75-75,75c-41.5,0-75-33.6-75-75S169.8,107.6,211.2,107.6z"
		/>
	<path style="fill:#FDC75B;" d="M208.9,301.6l1.4,1.6c-13.9,12.5-22.6,30.6-22.6,50.7c0,3.5,0.3,7,0.8,10.4l-6.2,0.8H98.9
		c-16,0-28.9-13-28.9-28.9v-24.9v-9.6h138.9V301.6z"/>
	<circle style="fill:#FDC75B;" cx="62.6" cy="114.3" r="20.9"/>
</g>
<path d="M62.6,83.5c-17,0-30.9,13.8-30.9,30.9s13.9,30.8,30.9,30.8s30.9-13.8,30.9-30.9S79.6,83.5,62.6,83.5z M62.6,125.2
	c-6,0-10.9-4.9-10.9-10.9s4.9-10.9,10.9-10.9s10.9,4.9,10.9,10.9S68.6,125.2,62.6,125.2z"/>
<path d="M497.5,378.8l-0.4-32.4c0.1-0.7,0.1-1.3,0.1-2c0-8-5.3-14.6-15.3-19.7V155.9c0-21.5-17.5-38.7-38.9-38.7h-21V92.4
	c0-21.5-17.2-39.2-38.7-39.2H39.1C17.7,53.2,0,71,0,92.4v180.2c0,21.5,17.7,38.6,39.1,38.6H60v24.9c0,21.5,17.4,39.1,38.9,39.1h81.7
	c4.1,15,12.5,27.8,24.1,37.9c14.2,12.3,32.4,19,51.2,19c17.4,0,34.2-5.8,47.9-16.4c10.8,2.3,23.1,3.7,36.1,4
	c2.4,6.3,9.4,13.3,26.2,18.5c14,4.3,32.5,6.6,52.1,6.6c29.6,0,79.8-6.6,79.8-31.5v-0.1L497.5,378.8z M211.2,247.5
	c-35.9,0-65-29.2-65-65s29.2-65,65-65s65,29.2,65,65S247.1,247.5,211.2,247.5z M286.1,281.8l-0.2-9c16,6.5,38.7,9.1,58.9,9.1
	c16.8,0,43.2-2.2,61.2-9.3v10.9c-4,4.8-27.5,12.9-61.2,12.9c-15,0-29.6-1.6-41.2-4.4C298.2,287.7,292.3,284.4,286.1,281.8z
	 M402.5,248.6c0.2,1.1,0.6,2.1,1.2,3c-3,1.6-7.9,3.6-15.6,5.5c-12.4,3-27.8,4.7-43.4,4.7c-33.4,0-53.3-7.3-58.5-11.4
	c5.3-4.2,25.1-11.4,58.5-11.4C364.6,239,390.1,242.4,402.5,248.6z M468.3,340.6C468.3,340.6,468.3,340.5,468.3,340.6
	c4,1.5,6.5,2.9,7.9,3.9c-5.6,4.2-25.8,11.4-59.4,11.4c-33.4,0-53.3-7.3-58.5-11.4c2.1-1.6,6.8-4.2,16.1-6.6
	c11.5-3,26.3-4.6,41.6-4.6h0.8C436.8,333.2,456.1,335.9,468.3,340.6z M344.7,316.3c18.8,0,37.2-2.3,51.7-6.6c3.5-1,6.6-2.2,9.6-3.4
	v6.9c-14,0.7-27.9,2.7-38.9,5.8c-10.7,3-18.5,7-23.5,11.8c-4.5,0-9-0.2-13.2-0.5c-1.6-5.2-3.8-10.2-6.5-14.9
	C330.6,316,337.6,316.3,344.7,316.3z M334,350.5c1.2,0.1,2.5,0.1,3.8,0.1l0.2,14.5c-1.6,0-3.1-0.1-4.7-0.2c0.5-3.6,0.8-7.3,0.8-11
	C334.1,352.8,334.1,351.7,334,350.5z M327.8,384.6c3.4,0.3,6.9,0.4,10.5,0.5l0.2,14.5c-6.3-0.2-12.4-0.7-18.2-1.4
	C323.3,394,325.8,389.4,327.8,384.6z M358,366.8c16.1,6.5,39,9.1,58.8,9.1c18.8,0,36.9-2.2,51-6.3c3.5-1,6.7-2.1,9.5-3.3l0.1,10.6
	c-0.1,0.3-0.1,0.6-0.1,1c-3.3,3.9-24,12.4-60.5,12.4c-33.5,0-53.4-7.3-58.6-11.4L358,366.8z M443.1,137.2c10.4,0,18.9,8.3,18.9,18.7
	v161.9c-11-2.5-23-4.1-36-4.6V286c0-0.5,0.1-1.1,0.1-1.7c0-0.5-0.1-0.9-0.1-1.4v-26.3c1-2,1.1-4.1,1.1-6.2c0-3.2-1.1-7.5-5.1-11.9
	V137.2H443.1z M20,272.7V92.4c0-10.4,8.7-19.2,19.1-19.2h344.2c10.5,0,18.7,8.8,18.7,19.2V227c-15-5-35.3-8-57.4-8
	c-18.8,0-45.7,2.7-62.9,11c9.2-13.6,14.5-29.9,14.5-47.4c0-46.9-38.1-85-85-85s-85,38.1-85,85s38.2,85,85.1,85
	c20.6,0,39.4-7.3,54.2-19.5c-0.1,0.8-0.2,1.6-0.2,2.4c0,0.7,0.1,1.5,0.2,2.2l0.6,23.7c-3.3-0.4-6.7-0.9-10.1-0.9
	c-17.2,0-33.7,5.7-47.3,15.7H39.1C28.7,291.2,20,283.1,20,272.7z M80,336.1v-24.9h110.1c-8,13-12.5,27.5-12.5,42.6
	c0,0.4,0,0.4,0,1.4H98.8C88.4,355.2,80,346.6,80,336.1z M295.1,397c-10.8,9.8-24.7,15.2-39.2,15.2c-28.5,0-53.2-21.2-57.6-49.4
	c-0.4-2.9-0.7-5.8-0.7-8.9c0-16.5,7-32.3,19.3-43.3c10.7-9.6,24.5-14.9,38.9-14.9c5.9,0,11.7,0.9,17.3,2.6
	c7.6,2.3,14.5,6.2,20.5,11.4c9.8,8.4,16.6,19.9,19.1,32.4v0.1c0.8,3.7,1.2,7.7,1.2,11.7c0,5.8-0.8,11.5-2.5,16.9
	C308.6,380.8,302.9,389.9,295.1,397z M418.1,424.9c-15.5,0-30.4-1.6-42.1-4.6c-11.4-2.9-16.1-6.2-17.3-7.5l-0.2-11.3
	c16.2,6.4,38.9,8.9,58.2,8.9c18,0,43.5-2.4,60.9-9.7l0.1,11.9C474.5,416.5,454.1,424.9,418.1,424.9z"/>
<path d="M255.9,309.1c-24.7,0-44.8,20.1-44.8,44.8c0,24.7,20.1,44.8,44.8,44.8s44.8-20.1,44.8-44.8
	C300.7,329.2,280.6,309.1,255.9,309.1z M255.9,378.7c-13.7,0-24.8-11.1-24.8-24.8c0-13.7,11.1-24.8,24.8-24.8
	c13.7,0,24.8,11.1,24.8,24.8C280.7,367.6,269.6,378.7,255.9,378.7z"/>
<g>
</g>
<g>
</g>
<g>
</g>
<g>
</g>
<g>
</g>
<g>
</g>
<g>
</g>
<g>
</g>
<g>
</g>
<g>
</g>
<g>
</g>
<g>
</g>
<g>
</g>
<g>
</g>
<g>
</g>
</svg>
