<?xml version="1.0" encoding="iso-8859-1"?>
<!-- Generator: Adobe Illustrator 19.0.0, SVG Export Plug-In . SVG Version: 6.00 Build 0)  -->
<svg version="1.1" id="Capa_1" xmlns="http://www.w3.org/2000/svg" xmlns:xlink="http://www.w3.org/1999/xlink" x="0px" y="0px"
	 viewBox="0 0 512.149 512.149" style="enable-background:new 0 0 512.149 512.149;" xml:space="preserve">
<path style="fill:#FFFFFF;" d="M501.483,245.333V288c-0.035,11.767-9.566,21.298-21.333,21.333h-128
	c-11.767-0.035-21.298-9.566-21.333-21.333v-42.667c0.035-11.767,9.566-21.298,21.333-21.333h128
	C491.917,224.035,501.448,233.566,501.483,245.333z"/>
<path style="fill:#87D2F3;" d="M458.816,341.333v85.333c-0.035,11.767-9.566,21.298-21.333,21.333H234.816l-0.32-0.213
	c46.958-52.843,42.188-133.747-10.655-180.706S90.094,224.893,43.136,277.736c-20.798,23.405-32.297,53.621-32.32,84.931v-320
	c0.035-11.767,9.566-21.298,21.333-21.333h234.667c11.767,0.035,21.298,9.566,21.333,21.333v42.667h149.333
	c11.767,0.035,21.298,9.566,21.333,21.333V224H352.149c-11.767,0.035-21.298,9.566-21.333,21.333V288
	c0.035,11.767,9.566,21.298,21.333,21.333h106.667V341.333z"/>
<path style="fill:#FFFFFF;" d="M266.816,362.667c0,70.692-57.308,128-128,128s-128-57.308-128-128s57.308-128,128-128
	c70.592-0.1,127.9,57.045,128,127.637C266.816,362.425,266.816,362.546,266.816,362.667z"/>
<g>
	<path style="fill:#2170A6;" d="M448.149,426.667c0,5.891-4.776,10.667-10.667,10.667h-160v21.333h160c17.673,0,32-14.327,32-32
		v-85.333h-21.333V426.667z"/>
	<path style="fill:#2170A6;" d="M21.483,42.667C21.483,36.776,26.258,32,32.149,32h234.667c5.891,0,10.667,4.776,10.667,10.667v32
		h-224V96h384c5.891,0,10.667,4.776,10.667,10.667V192h21.333v-85.333c0-17.673-14.327-32-32-32H298.816v-32
		c0-17.673-14.327-32-32-32H32.149c-17.673,0-32,14.327-32,32v224h21.333V42.667z"/>
	<path style="fill:#2170A6;" d="M480.149,213.333h-128c-17.673,0-32,14.327-32,32V288c0,17.673,14.327,32,32,32h128
		c17.673,0,32-14.327,32-32v-42.667C512.149,227.66,497.822,213.333,480.149,213.333z M490.816,288
		c0,5.891-4.776,10.667-10.667,10.667h-128c-5.891,0-10.667-4.776-10.667-10.667v-42.667c0-5.891,4.776-10.667,10.667-10.667h128
		c5.891,0,10.667,4.776,10.667,10.667V288z"/>
	<path style="fill:#2170A6;" d="M138.816,224C62.191,223.959,0.041,286.042,0,362.667s62.042,138.775,138.667,138.816
		c76.625,0.041,138.775-62.042,138.816-138.667c0-0.05,0-0.1,0-0.149C277.394,286.12,215.363,224.088,138.816,224z M226.539,440.693
		c-43.051,48.489-117.259,52.898-165.748,9.847S7.893,333.282,50.944,284.792s117.259-52.898,165.748-9.847
		c25.076,22.264,39.436,54.188,39.458,87.721C256.153,391.422,245.619,419.181,226.539,440.693z"/>
	<path style="fill:#2170A6;" d="M160.149,309.333h-10.667V288h-21.333v21.333h-10.667c-11.782,0-21.333,9.551-21.333,21.333V352
		c0,11.782,9.551,21.333,21.333,21.333h42.667v21.333h-42.667V384H96.149v10.667c0,11.782,9.551,21.333,21.333,21.333h10.667v21.333
		h21.333V416h10.667c11.782,0,21.333-9.551,21.333-21.333v-21.333c0-11.782-9.551-21.333-21.333-21.333h-42.667v-21.333h42.667
		v10.667h21.333v-10.667C181.483,318.885,171.931,309.333,160.149,309.333z"/>
	<path style="fill:#2170A6;" d="M362.816,256h21.333v21.333h-21.333V256z"/>
	<path style="fill:#2170A6;" d="M416.149,181.333v-42.667c0-5.891-4.776-10.667-10.667-10.667h-42.667v21.333h32v32H416.149z"/>
</g>
<g>
</g>
<g>
</g>
<g>
</g>
<g>
</g>
<g>
</g>
<g>
</g>
<g>
</g>
<g>
</g>
<g>
</g>
<g>
</g>
<g>
</g>
<g>
</g>
<g>
</g>
<g>
</g>
<g>
</g>
</svg>
