<svg height="480pt" viewBox="0 -16 480 480" width="480pt" xmlns="http://www.w3.org/2000/svg"><path d="m408 256v96h48c8.824219-.027344 15.972656-7.175781 16-16v-80zm0 0" fill="#78b9eb"/><path d="m280 8h-240c-8.824219.027344-15.972656 7.175781-16 16v112c.027344 8.824219 7.175781 15.972656 16 16h168l32 32v-32h40c8.824219-.027344 15.972656-7.175781 16-16v-112c-.027344-8.824219-7.175781-15.972656-16-16zm0 0" fill="#78b9eb"/><path d="m8 256v80c.027344 8.824219 7.175781 15.972656 16 16h48v-96zm0 0" fill="#78b9eb"/><g fill="#1a6fb0"><path d="m472 248h-24.191406c-3.230469-87.222656-60.714844-163.089844-143.808594-189.800781v-34.199219c0-13.253906-10.746094-24-24-24h-240c-13.253906 0-24 10.746094-24 24v112c0 13.253906 10.746094 24 24 24h15.441406c-14.144531 27.257812-22.066406 57.3125-23.203125 88h-24.238281c-4.417969 0-8 3.582031-8 8v80c0 13.253906 10.746094 24 24 24h48c4.417969 0 8-3.582031 8-8v-40h8v32c0 4.417969 3.582031 8 8 8s8-3.582031 8-8v-80c0-4.417969-3.582031-8-8-8s-8 3.582031-8 8v32h-8v-40c0-4.417969-3.582031-8-8-8h-23.726562c1.261718-30.964844 10.019531-61.164062 25.519531-88h130.894531l29.65625 29.65625c1.5 1.5 3.535156 2.34375 5.65625 2.34375 1.050781.003906 2.09375-.203125 3.0625-.609375 2.988281-1.238281 4.9375-4.15625 4.9375-7.390625v-24h32c13.253906 0 24-10.746094 24-24v-60.984375c73.988281 26.074219 124.617188 94.601563 127.808594 172.984375h-23.808594c-4.417969 0-8 3.582031-8 8v40h-8v-32c0-4.417969-3.582031-8-8-8s-8 3.582031-8 8v80c0 4.417969 3.582031 8 8 8s8-3.582031 8-8v-32h8v40c0 4.417969 3.582031 8 8 8h48c13.253906 0 24-10.746094 24-24v-80c0-4.417969-3.582031-8-8-8zm-408 96h-40c-4.417969 0-8-3.582031-8-8v-72h48zm224-208c0 4.417969-3.582031 8-8 8h-40c-4.417969 0-8 3.582031-8 8v12.6875l-18.335938-18.335938c-1.507812-1.496093-3.539062-2.339843-5.664062-2.351562h-168c-4.417969 0-8-3.582031-8-8v-112c0-4.417969 3.582031-8 8-8h240c4.417969 0 8 3.582031 8 8zm176 200c0 4.417969-3.582031 8-8 8h-40v-80h48zm0 0"/><path d="m144 40h-80c-4.417969 0-8 3.582031-8 8s3.582031 8 8 8h80c4.417969 0 8-3.582031 8-8s-3.582031-8-8-8zm0 0"/><path d="m264 40h-40c-4.417969 0-8 3.582031-8 8s3.582031 8 8 8h40c4.417969 0 8-3.582031 8-8s-3.582031-8-8-8zm0 0"/><path d="m200 48c0 4.417969-3.582031 8-8 8s-8-3.582031-8-8 3.582031-8 8-8 8 3.582031 8 8zm0 0"/><path d="m136 72h-72c-4.417969 0-8 3.582031-8 8s3.582031 8 8 8h72c4.417969 0 8-3.582031 8-8s-3.582031-8-8-8zm0 0"/><path d="m208 80c0-4.417969-3.582031-8-8-8h-40c-4.417969 0-8 3.582031-8 8s3.582031 8 8 8h40c4.417969 0 8-3.582031 8-8zm0 0"/><path d="m264 72h-40c-4.417969 0-8 3.582031-8 8s3.582031 8 8 8h40c4.417969 0 8-3.582031 8-8s-3.582031-8-8-8zm0 0"/><path d="m104 104h-40c-4.417969 0-8 3.582031-8 8s3.582031 8 8 8h40c4.417969 0 8-3.582031 8-8s-3.582031-8-8-8zm0 0"/><path d="m144 112c0 4.417969-3.582031 8-8 8s-8-3.582031-8-8 3.582031-8 8-8 8 3.582031 8 8zm0 0"/><path d="m176 248c0 4.417969-3.582031 8-8 8s-8-3.582031-8-8 3.582031-8 8-8 8 3.582031 8 8zm0 0"/><path d="m168 400c0 4.417969-3.582031 8-8 8s-8-3.582031-8-8 3.582031-8 8-8 8 3.582031 8 8zm0 0"/><path d="m312 424c0 4.417969-3.582031 8-8 8s-8-3.582031-8-8 3.582031-8 8-8 8 3.582031 8 8zm0 0"/><path d="m328 240c0 4.417969-3.582031 8-8 8s-8-3.582031-8-8 3.582031-8 8-8 8 3.582031 8 8zm0 0"/><path d="m264 104h-80c-4.417969 0-8 3.582031-8 8s3.582031 8 8 8h80c4.417969 0 8-3.582031 8-8s-3.582031-8-8-8zm0 0"/><path d="m192 312c-4.417969 0-8 3.582031-8 8v56c0 4.417969 3.582031 8 8 8h48c4.417969 0 8-3.582031 8-8s-3.582031-8-8-8h-40v-40h40c4.417969 0 8-3.582031 8-8v-48c0-4.417969-3.582031-8-8-8h-48c-4.417969 0-8 3.582031-8 8s3.582031 8 8 8h40v32zm0 0"/><path d="m328 336c4.417969 0 8-3.582031 8-8s-3.582031-8-8-8h-8v-48c0-4.417969-3.582031-8-8-8s-8 3.582031-8 8v48h-32v-48c0-4.417969-3.582031-8-8-8s-8 3.582031-8 8v56c0 4.417969 3.582031 8 8 8h40v40c0 4.417969 3.582031 8 8 8s8-3.582031 8-8v-40zm0 0"/><path d="m262.800781 430.960938c-14.75 2.085937-29.773437 1.023437-44.082031-3.128907-9.511719-2.84375-18.582031-6.988281-26.957031-12.320312-3.730469-2.289063-8.601563-1.230469-11.042969 2.398437-1.121094 1.785156-1.523438 3.933594-1.117188 6 .441407 2.089844 1.710938 3.90625 3.519532 5.042969 9.507812 6.097656 19.820312 10.835937 30.640625 14.078125.078125 0 .238281.082031.316406.082031l.160156.070313c16.488281 4.789062 33.804688 6.019531 50.800781 3.609375 4.3125-.6875 7.277344-4.699219 6.664063-9.023438-.609375-4.320312-4.570313-7.355469-8.902344-6.816406zm0 0"/><path d="m152 357.441406v-.160156c-2.746094-9.519531-4.144531-19.375-4.160156-29.28125-.023438-14.90625 3.167968-29.640625 9.359375-43.199219 1.839843-4.023437.089843-8.773437-3.917969-10.640625-4.046875-1.726562-8.734375.035156-10.640625 4-11.921875 26.28125-14.050781 55.960938-6 83.671875 1.042969 3.367188 4.152344 5.667969 7.679687 5.679688.757813.019531 1.515626-.085938 2.238282-.320313 2.023437-.558594 3.738281-1.90625 4.757812-3.738281 1.023438-1.832031 1.269532-4 .683594-6.011719zm0 0"/><path d="m348.960938 263.121094c-2.441407-3.636719-7.3125-4.695313-11.039063-2.402344-3.6875 2.363281-4.792969 7.246094-2.480469 10.960938 0 .042968.035156.082031.078125.082031 8.050781 12.546875 13.316407 26.675781 15.441407 41.429687 2.800781 19.730469-.085938 39.851563-8.320313 58-4.160156 8.996094-9.542969 17.371094-16 24.886719-2.03125 2.375-2.503906 5.703125-1.21875 8.546875 1.285156 2.847656 4.097656 4.691406 7.21875 4.734375 2.335937-.011719 4.554687-1.035156 6.078125-2.808594 7.496094-8.644531 13.71875-18.316406 18.480469-28.71875 7.171875-15.632812 10.855469-32.636719 10.800781-49.832031-.003906-5.699219-.40625-11.394531-1.199219-17.039062-2.425781-17.046876-8.511719-33.367188-17.839843-47.839844zm0 0"/><path d="m203.527344 232.679688c1.105468.007812 2.195312-.222657 3.199218-.679688h.082032c12.660156-5.808594 26.421875-8.828125 40.351562-8.855469.152344 0 .375.070313.527344 0 9.351562.011719 18.65625 1.335938 27.640625 3.925781 4.003906 1.113282 8.164063-1.167968 9.382813-5.140624.582031-1.917969.375-3.992188-.578126-5.753907-.949218-1.765625-2.570312-3.074219-4.492187-3.640625-10.25-2.945312-20.855469-4.472656-31.519531-4.535156h-.527344c-16.285156-.027344-32.386719 3.457031-47.203125 10.214844-3.261719 1.457031-5.058594 5-4.308594 8.492187.75 3.492188 3.839844 5.984375 7.414063 5.972657zm0 0"/></g></svg>